<svg xmlns="http://www.w3.org/2000/svg" width="980" height="540" viewBox="0 0 980 540" role="img">
<title>Critical thinking · A / B / three C finals</title>
<defs>
<linearGradient id="bg" x1="0" y1="0" x2="0" y2="1">
<stop offset="0%" stop-color="#FFFBF5"/>
<stop offset="100%" stop-color="#F5F0E8"/>
</linearGradient>
</defs>
<rect width="100%" height="100%" fill="url(#bg)"/>
<text x="36" y="40" fill="#1C1917" font-family="ui-sans-serif,system-ui,sans-serif" font-size="22" font-weight="700">Critical thinking · A / B / C×3</text>
<text x="36" y="64" fill="#78716C" font-family="ui-sans-serif,system-ui,sans-serif" font-size="13">5 trials each · A floor · B criteria leak · three genome finals (★★★ = perf / stable / balanced)</text>
<rect x="56" y="80" width="680" height="356" rx="14" fill="#FFFCFA" stroke="#E7E5E4"/>
<line x1="72" y1="420.0" x2="720" y2="420.0" stroke="#D6D3D1" stroke-width="1"/>
<text x="62" y="424.0" text-anchor="end" fill="#57534E" font-family="ui-sans-serif,system-ui,sans-serif" font-size="12">60</text>
<line x1="72" y1="379.5" x2="720" y2="379.5" stroke="#F5F5F4" stroke-width="1"/>
<line x1="72" y1="339.0" x2="720" y2="339.0" stroke="#D6D3D1" stroke-width="1"/>
<text x="62" y="343.0" text-anchor="end" fill="#57534E" font-family="ui-sans-serif,system-ui,sans-serif" font-size="12">70</text>
<line x1="72" y1="298.5" x2="720" y2="298.5" stroke="#F5F5F4" stroke-width="1"/>
<line x1="72" y1="258.0" x2="720" y2="258.0" stroke="#D6D3D1" stroke-width="1"/>
<text x="62" y="262.0" text-anchor="end" fill="#57534E" font-family="ui-sans-serif,system-ui,sans-serif" font-size="12">80</text>
<line x1="72" y1="217.5" x2="720" y2="217.5" stroke="#F5F5F4" stroke-width="1"/>
<line x1="72" y1="177.0" x2="720" y2="177.0" stroke="#D6D3D1" stroke-width="1"/>
<text x="62" y="181.0" text-anchor="end" fill="#57534E" font-family="ui-sans-serif,system-ui,sans-serif" font-size="12">90</text>
<line x1="72" y1="136.5" x2="720" y2="136.5" stroke="#F5F5F4" stroke-width="1"/>
<line x1="72" y1="96.0" x2="720" y2="96.0" stroke="#D6D3D1" stroke-width="1"/>
<text x="62" y="100.0" text-anchor="end" fill="#57534E" font-family="ui-sans-serif,system-ui,sans-serif" font-size="12">100</text>
<line x1="72" y1="177.0" x2="720" y2="177.0" stroke="#A8A29E" stroke-width="1.3" stroke-dasharray="2 4"/>
<text x="78" y="171.0" fill="#A8A29E" font-family="ui-sans-serif,system-ui,sans-serif" font-size="11">90</text>
<line x1="72.0" y1="420" x2="72.0" y2="426" stroke="#A8A29E"/>
<text x="72.0" y="444" text-anchor="middle" fill="#57534E" font-family="ui-sans-serif,system-ui,sans-serif" font-size="13">#1</text>
<line x1="234.0" y1="420" x2="234.0" y2="426" stroke="#A8A29E"/>
<text x="234.0" y="444" text-anchor="middle" fill="#57534E" font-family="ui-sans-serif,system-ui,sans-serif" font-size="13">#2</text>
<line x1="396.0" y1="420" x2="396.0" y2="426" stroke="#A8A29E"/>
<text x="396.0" y="444" text-anchor="middle" fill="#57534E" font-family="ui-sans-serif,system-ui,sans-serif" font-size="13">#3</text>
<line x1="558.0" y1="420" x2="558.0" y2="426" stroke="#A8A29E"/>
<text x="558.0" y="444" text-anchor="middle" fill="#57534E" font-family="ui-sans-serif,system-ui,sans-serif" font-size="13">#4</text>
<line x1="720.0" y1="420" x2="720.0" y2="426" stroke="#A8A29E"/>
<text x="720.0" y="444" text-anchor="middle" fill="#57534E" font-family="ui-sans-serif,system-ui,sans-serif" font-size="13">#5</text>
<polyline fill="none" stroke="#57534E" stroke-width="3.4" stroke-linecap="round" stroke-linejoin="round" opacity="1.0" points="72.0,358.4 234.0,356.0 396.0,364.9 558.0,334.1 720.0,356.0"/>
<circle cx="72.0" cy="358.4" r="6.5" fill="#FFFCFA" opacity="1.0"/>
<circle cx="72.0" cy="358.4" r="4.5" fill="#57534E" opacity="1.0"/>
<circle cx="234.0" cy="356.0" r="6.5" fill="#FFFCFA" opacity="1.0"/>
<circle cx="234.0" cy="356.0" r="4.5" fill="#57534E" opacity="1.0"/>
<circle cx="396.0" cy="364.9" r="6.5" fill="#FFFCFA" opacity="1.0"/>
<circle cx="396.0" cy="364.9" r="4.5" fill="#57534E" opacity="1.0"/>
<circle cx="558.0" cy="334.1" r="6.5" fill="#FFFCFA" opacity="1.0"/>
<circle cx="558.0" cy="334.1" r="4.5" fill="#57534E" opacity="1.0"/>
<circle cx="720.0" cy="356.0" r="6.5" fill="#FFFCFA" opacity="1.0"/>
<circle cx="720.0" cy="356.0" r="4.5" fill="#57534E" opacity="1.0"/>
<polyline fill="none" stroke="#C2410C" stroke-width="3.4" stroke-linecap="round" stroke-linejoin="round" opacity="1.0" points="72.0,128.4 234.0,139.7 396.0,134.9 558.0,139.7 720.0,147.0"/>
<circle cx="72.0" cy="128.4" r="6.5" fill="#FFFCFA" opacity="1.0"/>
<polygon points="72.0,122.9 77.5,128.4 72.0,133.9 66.5,128.4" fill="#C2410C" opacity="1.0"/>
<circle cx="234.0" cy="139.7" r="6.5" fill="#FFFCFA" opacity="1.0"/>
<polygon points="234.0,134.2 239.5,139.7 234.0,145.2 228.5,139.7" fill="#C2410C" opacity="1.0"/>
<circle cx="396.0" cy="134.9" r="6.5" fill="#FFFCFA" opacity="1.0"/>
<polygon points="396.0,129.4 401.5,134.9 396.0,140.4 390.5,134.9" fill="#C2410C" opacity="1.0"/>
<circle cx="558.0" cy="139.7" r="6.5" fill="#FFFCFA" opacity="1.0"/>
<polygon points="558.0,134.2 563.5,139.7 558.0,145.2 552.5,139.7" fill="#C2410C" opacity="1.0"/>
<circle cx="720.0" cy="147.0" r="6.5" fill="#FFFCFA" opacity="1.0"/>
<polygon points="720.0,141.5 725.5,147.0 720.0,152.5 714.5,147.0" fill="#C2410C" opacity="1.0"/>
<polyline fill="none" stroke="#0F766E" stroke-width="3.4" stroke-linecap="round" stroke-linejoin="round" opacity="1.0" points="72.0,145.4 234.0,141.4 396.0,147.0 558.0,146.2 720.0,147.0"/>
<circle cx="72.0" cy="145.4" r="6.5" fill="#FFFCFA" opacity="1.0"/>
<rect x="68.0" y="141.4" width="8" height="8" rx="1.5" fill="#0F766E" opacity="1.0"/>
<circle cx="234.0" cy="141.4" r="6.5" fill="#FFFCFA" opacity="1.0"/>
<rect x="230.0" y="137.4" width="8" height="8" rx="1.5" fill="#0F766E" opacity="1.0"/>
<circle cx="396.0" cy="147.0" r="6.5" fill="#FFFCFA" opacity="1.0"/>
<rect x="392.0" y="143.0" width="8" height="8" rx="1.5" fill="#0F766E" opacity="1.0"/>
<circle cx="558.0" cy="146.2" r="6.5" fill="#FFFCFA" opacity="1.0"/>
<rect x="554.0" y="142.2" width="8" height="8" rx="1.5" fill="#0F766E" opacity="1.0"/>
<circle cx="720.0" cy="147.0" r="6.5" fill="#FFFCFA" opacity="1.0"/>
<rect x="716.0" y="143.0" width="8" height="8" rx="1.5" fill="#0F766E" opacity="1.0"/>
<polyline fill="none" stroke="#2563EB" stroke-width="2.4" stroke-linecap="round" stroke-linejoin="round" opacity="0.85" points="72.0,143.0 234.0,141.4 396.0,155.1 558.0,144.6 720.0,143.8"/>
<circle cx="72.0" cy="143.0" r="6.5" fill="#FFFCFA" opacity="0.85"/>
<circle cx="72.0" cy="143.0" r="4.5" fill="#2563EB" opacity="0.85"/>
<circle cx="234.0" cy="141.4" r="6.5" fill="#FFFCFA" opacity="0.85"/>
<circle cx="234.0" cy="141.4" r="4.5" fill="#2563EB" opacity="0.85"/>
<circle cx="396.0" cy="155.1" r="6.5" fill="#FFFCFA" opacity="0.85"/>
<circle cx="396.0" cy="155.1" r="4.5" fill="#2563EB" opacity="0.85"/>
<circle cx="558.0" cy="144.6" r="6.5" fill="#FFFCFA" opacity="0.85"/>
<circle cx="558.0" cy="144.6" r="4.5" fill="#2563EB" opacity="0.85"/>
<circle cx="720.0" cy="143.8" r="6.5" fill="#FFFCFA" opacity="0.85"/>
<circle cx="720.0" cy="143.8" r="4.5" fill="#2563EB" opacity="0.85"/>
<polyline fill="none" stroke="#7C3AED" stroke-width="2.4" stroke-linecap="round" stroke-linejoin="round" opacity="0.85" points="72.0,160.0 234.0,190.8 396.0,204.5 558.0,174.6 720.0,164.8"/>
<circle cx="72.0" cy="160.0" r="6.5" fill="#FFFCFA" opacity="0.85"/>
<polygon points="72.0,154.5 77.5,160.0 72.0,165.5 66.5,160.0" fill="#7C3AED" opacity="0.85"/>
<circle cx="234.0" cy="190.8" r="6.5" fill="#FFFCFA" opacity="0.85"/>
<polygon points="234.0,185.3 239.5,190.8 234.0,196.3 228.5,190.8" fill="#7C3AED" opacity="0.85"/>
<circle cx="396.0" cy="204.5" r="6.5" fill="#FFFCFA" opacity="0.85"/>
<polygon points="396.0,199.0 401.5,204.5 396.0,210.0 390.5,204.5" fill="#7C3AED" opacity="0.85"/>
<circle cx="558.0" cy="174.6" r="6.5" fill="#FFFCFA" opacity="0.85"/>
<polygon points="558.0,169.1 563.5,174.6 558.0,180.1 552.5,174.6" fill="#7C3AED" opacity="0.85"/>
<circle cx="720.0" cy="164.8" r="6.5" fill="#FFFCFA" opacity="0.85"/>
<polygon points="720.0,159.3 725.5,164.8 720.0,170.3 714.5,164.8" fill="#7C3AED" opacity="0.85"/>
<rect x="748" y="80" width="208" height="360" rx="14" fill="#FFFCFA" stroke="#E7E5E4"/>
<text x="764" y="108" fill="#78716C" font-family="ui-sans-serif,system-ui,sans-serif" font-size="11" font-weight="600">LEGEND</text>
<line x1="764" y1="132" x2="792" y2="132" stroke="#57534E" stroke-width="3"/>
<circle cx="778" cy="132" r="4" fill="#57534E"/>
<text x="802" y="136" fill="#1C1917" font-family="ui-sans-serif,system-ui,sans-serif" font-size="12" font-weight="600">A · floor</text>
<text x="802" y="154" fill="#57534E" font-family="ui-sans-serif,system-ui,sans-serif" font-size="12">68.2 ± 1.44</text>
<line x1="764" y1="188" x2="792" y2="188" stroke="#C2410C" stroke-width="3"/>
<circle cx="778" cy="188" r="4" fill="#C2410C"/>
<text x="802" y="192" fill="#1C1917" font-family="ui-sans-serif,system-ui,sans-serif" font-size="12" font-weight="600">B · leak ceiling</text>
<text x="802" y="210" fill="#57534E" font-family="ui-sans-serif,system-ui,sans-serif" font-size="12">94.8 ± 0.85</text>
<line x1="764" y1="244" x2="792" y2="244" stroke="#0F766E" stroke-width="3"/>
<circle cx="778" cy="244" r="4" fill="#0F766E"/>
<text x="802" y="248" fill="#1C1917" font-family="ui-sans-serif,system-ui,sans-serif" font-size="12" font-weight="600">C1 · balanced philosopher</text>
<text x="802" y="266" fill="#57534E" font-family="ui-sans-serif,system-ui,sans-serif" font-size="12">93.9 ± 0.29 ★★★</text>
<line x1="764" y1="300" x2="792" y2="300" stroke="#2563EB" stroke-width="3"/>
<circle cx="778" cy="300" r="4" fill="#2563EB"/>
<text x="802" y="304" fill="#1C1917" font-family="ui-sans-serif,system-ui,sans-serif" font-size="12" font-weight="600">C2 · pragmatic mentor</text>
<text x="802" y="322" fill="#57534E" font-family="ui-sans-serif,system-ui,sans-serif" font-size="12">93.9 ± 0.68</text>
<line x1="764" y1="356" x2="792" y2="356" stroke="#7C3AED" stroke-width="3"/>
<circle cx="778" cy="356" r="4" fill="#7C3AED"/>
<text x="802" y="360" fill="#1C1917" font-family="ui-sans-serif,system-ui,sans-serif" font-size="12" font-weight="600">C3 · east-west sage</text>
<text x="802" y="378" fill="#57534E" font-family="ui-sans-serif,system-ui,sans-serif" font-size="12">89.8 ± 2.29</text>
<text x="36" y="510" fill="#44403C" font-family="ui-sans-serif,system-ui,sans-serif" font-size="14"><tspan font-weight="700" fill="#C2410C">B−A = +26.7</tspan><tspan fill="#A8A29E">  ·  </tspan><tspan font-weight="700" fill="#0F766E">C★−A = +25.7</tspan><tspan fill="#78716C">  ·  three genomes in finals, one champion</tspan></text>
</svg>
